<svg width="24" height="24" viewBox="0 0 24 24" fill="none" xmlns="http://www.w3.org/2000/svg">
<path d="M8.25 5.25H21.75" stroke="#0A1E63" stroke-width="2" stroke-miterlimit="10" stroke-linecap="round" stroke-linejoin="round"/>
<path d="M8.25 12H16.5" stroke="#0A1E63" stroke-width="2" stroke-miterlimit="10" stroke-linecap="round" stroke-linejoin="round"/>
<path d="M8.25 18.75H21.75" stroke="#0A1E63" stroke-width="2" stroke-miterlimit="10" stroke-linecap="round" stroke-linejoin="round"/>
<path d="M3.75 6.75C4.57843 6.75 5.25 6.07843 5.25 5.25C5.25 4.42157 4.57843 3.75 3.75 3.75C2.92157 3.75 2.25 4.42157 2.25 5.25C2.25 6.07843 2.92157 6.75 3.75 6.75Z" stroke="#0A1E63" stroke-width="2" stroke-miterlimit="10" stroke-linecap="round" stroke-linejoin="round"/>
<path d="M3.75 13.5C4.57843 13.5 5.25 12.8284 5.25 12C5.25 11.1716 4.57843 10.5 3.75 10.5C2.92157 10.5 2.25 11.1716 2.25 12C2.25 12.8284 2.92157 13.5 3.75 13.5Z" stroke="#0A1E63" stroke-width="2" stroke-miterlimit="10" stroke-linecap="round" stroke-linejoin="round"/>
<path d="M3.75 20.25C4.57843 20.25 5.25 19.5784 5.25 18.75C5.25 17.9216 4.57843 17.25 3.75 17.25C2.92157 17.25 2.25 17.9216 2.25 18.75C2.25 19.5784 2.92157 20.25 3.75 20.25Z" stroke="#0A1E63" stroke-width="2" stroke-miterlimit="10" stroke-linecap="round" stroke-linejoin="round"/>
</svg>
