<svg width="24" height="24" viewBox="0 0 24 24" fill="none" xmlns="http://www.w3.org/2000/svg">
<path d="M12 18C14.8995 18 17.25 15.3137 17.25 12C17.25 8.68629 14.8995 6 12 6C9.10051 6 6.75 8.68629 6.75 12C6.75 15.3137 9.10051 18 12 18Z" stroke="#0A1E63" stroke-miterlimit="10" stroke-linecap="round" stroke-linejoin="round"/>
<path d="M9.75 6C9.75 4.725 10.725 3.75 12 3.75C13.275 3.75 14.25 4.725 14.25 6" stroke="#0A1E63" stroke-miterlimit="10" stroke-linecap="round" stroke-linejoin="round"/>
<path d="M12 6V13.5L9 16.5" stroke="#0A1E63" stroke-miterlimit="10" stroke-linecap="round" stroke-linejoin="round"/>
<path d="M12 13.5L15 16.5" stroke="#0A1E63" stroke-miterlimit="10" stroke-linecap="round" stroke-linejoin="round"/>
<path d="M5.25 3.75V4.05C5.25 5.775 6.075 7.35 7.5 8.25" stroke="#0A1E63" stroke-miterlimit="10" stroke-linecap="round" stroke-linejoin="round"/>
<path d="M18.75 3.75V4.05C18.75 5.775 17.925 7.35 16.5 8.25" stroke="#0A1E63" stroke-miterlimit="10" stroke-linecap="round" stroke-linejoin="round"/>
<path d="M5.25 20.25V19.95C5.25 18.225 6.075 16.65 7.5 15.75" stroke="#0A1E63" stroke-miterlimit="10" stroke-linecap="round" stroke-linejoin="round"/>
<path d="M18.75 20.25V19.95C18.75 18.225 17.925 16.65 16.5 15.75" stroke="#0A1E63" stroke-miterlimit="10" stroke-linecap="round" stroke-linejoin="round"/>
<path d="M2.25 12H6.75" stroke="#0A1E63" stroke-miterlimit="10" stroke-linecap="round" stroke-linejoin="round"/>
<path d="M17.25 12H21.75" stroke="#0A1E63" stroke-miterlimit="10" stroke-linecap="round" stroke-linejoin="round"/>
</svg>
