<svg width="24" height="24" viewBox="0 0 24 24" fill="none" xmlns="http://www.w3.org/2000/svg">
<path d="M20.25 4.19836H17.8392C17.836 3.80285 17.6767 3.42462 17.396 3.14599C17.1152 2.86736 16.7358 2.71088 16.3403 2.71059C15.9448 2.71031 15.5652 2.86624 15.284 3.14447C15.0029 3.4227 14.843 3.80069 14.8392 4.1962C14.8416 4.19811 9.15846 4.19838 9.16077 4.19617C9.16062 3.99919 9.12168 3.80416 9.04617 3.62223C8.97065 3.4403 8.86004 3.27502 8.72065 3.13583C8.58126 2.99665 8.41582 2.88628 8.23378 2.81103C8.05174 2.73578 7.85665 2.69712 7.65967 2.69727C7.46269 2.69741 7.26766 2.73635 7.08573 2.81187C6.9038 2.88738 6.73852 2.99799 6.59933 3.13738C6.46015 3.27677 6.34978 3.44221 6.27453 3.62425C6.19928 3.8063 6.16062 4.00138 6.16077 4.19836H3.75C3.15346 4.19901 2.58155 4.43628 2.15973 4.85809C1.73791 5.27991 1.50065 5.85182 1.5 6.44836V19.0533C1.50065 19.6499 1.73791 20.2218 2.15973 20.6436C2.58155 21.0654 3.15346 21.3027 3.75 21.3033H20.25C20.8465 21.3027 21.4185 21.0654 21.8403 20.6436C22.2621 20.2218 22.4993 19.6499 22.5 19.0533V6.44836C22.4993 5.85182 22.2621 5.27991 21.8403 4.85809C21.4185 4.43628 20.8465 4.19901 20.25 4.19836ZM3.75 4.94836H6.16077C6.16121 5.34595 6.31942 5.72711 6.60066 6.00815C6.8819 6.28918 7.26318 6.44711 7.66077 6.44726C7.75906 6.44536 7.85268 6.40494 7.92147 6.3347C7.99026 6.26447 8.02873 6.17002 8.02858 6.07171C8.02843 5.9734 7.98969 5.87907 7.92068 5.80904C7.85168 5.73901 7.75794 5.69887 7.65964 5.69726C7.46109 5.69705 7.27073 5.61807 7.13033 5.47767C6.98994 5.33727 6.91097 5.14691 6.91077 4.94836V4.19618C6.91091 3.99727 6.99007 3.80656 7.13082 3.66601C7.27158 3.52546 7.4624 3.44658 7.66132 3.44673C7.86023 3.44687 8.05094 3.52603 8.19148 3.66679C8.33203 3.80754 8.41091 3.99836 8.41077 4.19728H7.85816C7.76 4.19924 7.66652 4.23962 7.5978 4.30973C7.52908 4.37985 7.49059 4.47411 7.49059 4.57229C7.4906 4.67047 7.52909 4.76473 7.59782 4.83484C7.66655 4.90495 7.76002 4.94532 7.85818 4.94728H14.8392C14.8394 5.34487 14.9973 5.72615 15.2783 6.00739C15.5594 6.28863 15.9405 6.44684 16.3381 6.44728C16.4364 6.44552 16.5301 6.40523 16.599 6.33509C16.6679 6.26496 16.7065 6.17058 16.7065 6.07226C16.7065 5.97395 16.6679 5.87958 16.599 5.80944C16.5301 5.73931 16.4364 5.69903 16.3381 5.69728C16.1396 5.69706 15.9492 5.61809 15.8088 5.47769C15.6684 5.33729 15.5894 5.14693 15.5892 4.94837V4.19618C15.5895 3.99727 15.6688 3.80662 15.8097 3.66617C15.9505 3.52572 16.1414 3.44699 16.3403 3.44728C16.5392 3.44757 16.7299 3.52687 16.8703 3.66772C17.0108 3.80858 17.0895 3.99946 17.0892 4.19838H16.5374C16.4391 4.20024 16.3456 4.24057 16.2768 4.3107C16.208 4.38082 16.1694 4.47514 16.1694 4.57339C16.1694 4.67163 16.208 4.76595 16.2768 4.83607C16.3456 4.90619 16.4391 4.94651 16.5374 4.94838H20.25C20.6477 4.9488 21.029 5.10697 21.3102 5.38819C21.5914 5.6694 21.7496 6.05068 21.75 6.44838V8.53651H2.25V6.44836C2.25042 6.05067 2.4086 5.66938 2.68981 5.38817C2.97102 5.10696 3.35231 4.94879 3.75 4.94836ZM20.25 20.5533H3.75C3.35231 20.5529 2.97102 20.3947 2.68981 20.1135C2.4086 19.8323 2.25042 19.451 2.25 19.0533V9.2865H21.75V19.0533C21.7496 19.451 21.5914 19.8323 21.3102 20.1135C21.029 20.3947 20.6477 20.5529 20.25 20.5533Z" fill="#0A1E63"/>
<path d="M18 10.4199C17.7039 10.4233 17.4209 10.5433 17.2127 10.7539C17.0044 10.9645 16.8876 11.2487 16.8876 11.5449C16.8876 11.8411 17.0044 12.1254 17.2127 12.336C17.421 12.5466 17.7039 12.6666 18.0001 12.6699C18.2962 12.6666 18.5791 12.5466 18.7874 12.336C18.9957 12.1253 19.1125 11.8411 19.1125 11.5449C19.1124 11.2487 18.9956 10.9645 18.7874 10.7539C18.5791 10.5432 18.2962 10.4233 18 10.4199ZM18 11.9199C17.9018 11.918 17.8083 11.8777 17.7396 11.8075C17.6708 11.7374 17.6323 11.6431 17.6323 11.5449C17.6323 11.4467 17.6708 11.3524 17.7396 11.2823C17.8083 11.2122 17.9019 11.1718 18.0001 11.1699C18.0982 11.1718 18.1918 11.2122 18.2605 11.2823C18.3293 11.3524 18.3678 11.4467 18.3678 11.5449C18.3678 11.6431 18.3293 11.7374 18.2605 11.8075C18.1917 11.8777 18.0982 11.918 18 11.9199Z" fill="#0A1E63"/>
<path d="M18 13.7949C17.7039 13.7983 17.4209 13.9183 17.2127 14.1289C17.0044 14.3395 16.8876 14.6237 16.8876 14.9199C16.8876 15.2161 17.0044 15.5004 17.2127 15.711C17.421 15.9216 17.7039 16.0416 18.0001 16.0449C18.2962 16.0416 18.5791 15.9216 18.7874 15.711C18.9957 15.5003 19.1125 15.2161 19.1125 14.9199C19.1124 14.6237 18.9956 14.3395 18.7874 14.1289C18.5791 13.9182 18.2962 13.7983 18 13.7949ZM18 15.2949C17.9018 15.293 17.8083 15.2527 17.7396 15.1825C17.6708 15.1124 17.6323 15.0181 17.6323 14.9199C17.6323 14.8217 17.6708 14.7274 17.7396 14.6573C17.8083 14.5872 17.9019 14.5468 18.0001 14.5449C18.0982 14.5468 18.1918 14.5872 18.2605 14.6573C18.3293 14.7274 18.3678 14.8217 18.3678 14.9199C18.3678 15.0181 18.3293 15.1124 18.2605 15.1825C18.1917 15.2527 18.0982 15.293 18 15.2949Z" fill="#0A1E63"/>
<path d="M18 17.1699C17.7039 17.1733 17.4209 17.2933 17.2127 17.5039C17.0044 17.7145 16.8876 17.9987 16.8876 18.2949C16.8876 18.5911 17.0044 18.8754 17.2127 19.086C17.421 19.2966 17.7039 19.4166 18.0001 19.4199C18.2962 19.4166 18.5791 19.2966 18.7874 19.086C18.9957 18.8753 19.1125 18.5911 19.1125 18.2949C19.1124 17.9987 18.9956 17.7145 18.7874 17.5039C18.5791 17.2932 18.2962 17.1733 18 17.1699ZM18 18.6699C17.9018 18.668 17.8083 18.6277 17.7396 18.5575C17.6708 18.4874 17.6323 18.3931 17.6323 18.2949C17.6323 18.1967 17.6708 18.1024 17.7396 18.0323C17.8083 17.9622 17.9019 17.9218 18.0001 17.9199C18.0982 17.9218 18.1918 17.9622 18.2605 18.0323C18.3293 18.1024 18.3678 18.1967 18.3678 18.2949C18.3678 18.3931 18.3293 18.4874 18.2605 18.5575C18.1917 18.6277 18.0982 18.668 18 18.6699Z" fill="#0A1E63"/>
<path d="M12 10.4199C11.7039 10.4233 11.4209 10.5433 11.2127 10.7539C11.0044 10.9645 10.8876 11.2487 10.8876 11.5449C10.8876 11.8411 11.0044 12.1254 11.2127 12.336C11.421 12.5466 11.7039 12.6666 12.0001 12.6699C12.2962 12.6666 12.5791 12.5466 12.7874 12.336C12.9957 12.1253 13.1125 11.8411 13.1125 11.5449C13.1124 11.2487 12.9956 10.9645 12.7874 10.7539C12.5791 10.5432 12.2962 10.4233 12 10.4199ZM12 11.9199C11.9018 11.918 11.8083 11.8777 11.7396 11.8075C11.6708 11.7374 11.6323 11.6431 11.6323 11.5449C11.6323 11.4467 11.6708 11.3524 11.7396 11.2823C11.8083 11.2122 11.9019 11.1718 12.0001 11.1699C12.0982 11.1718 12.1918 11.2122 12.2605 11.2823C12.3293 11.3524 12.3678 11.4467 12.3678 11.5449C12.3678 11.6431 12.3293 11.7374 12.2605 11.8075C12.1917 11.8777 12.0982 11.918 12 11.9199Z" fill="#0A1E63"/>
<path d="M12 13.7949C11.7039 13.7983 11.4209 13.9183 11.2127 14.1289C11.0044 14.3395 10.8876 14.6237 10.8876 14.9199C10.8876 15.2161 11.0044 15.5004 11.2127 15.711C11.421 15.9216 11.7039 16.0416 12.0001 16.0449C12.2962 16.0416 12.5791 15.9216 12.7874 15.711C12.9957 15.5003 13.1125 15.2161 13.1125 14.9199C13.1124 14.6237 12.9956 14.3395 12.7874 14.1289C12.5791 13.9182 12.2962 13.7983 12 13.7949ZM12 15.2949C11.9018 15.293 11.8083 15.2527 11.7396 15.1825C11.6708 15.1124 11.6323 15.0181 11.6323 14.9199C11.6323 14.8217 11.6708 14.7274 11.7396 14.6573C11.8083 14.5872 11.9019 14.5468 12.0001 14.5449C12.0982 14.5468 12.1918 14.5872 12.2605 14.6573C12.3293 14.7274 12.3678 14.8217 12.3678 14.9199C12.3678 15.0181 12.3293 15.1124 12.2605 15.1825C12.1917 15.2527 12.0982 15.293 12 15.2949Z" fill="#0A1E63"/>
<path d="M12 17.1699C11.7039 17.1733 11.4209 17.2933 11.2127 17.5039C11.0044 17.7145 10.8876 17.9987 10.8876 18.2949C10.8876 18.5911 11.0044 18.8754 11.2127 19.086C11.421 19.2966 11.7039 19.4166 12.0001 19.4199C12.2962 19.4166 12.5791 19.2966 12.7874 19.086C12.9957 18.8753 13.1125 18.5911 13.1125 18.2949C13.1124 17.9987 12.9956 17.7145 12.7874 17.5039C12.5791 17.2932 12.2962 17.1733 12 17.1699ZM12 18.6699C11.9018 18.668 11.8083 18.6277 11.7396 18.5575C11.6708 18.4874 11.6323 18.3931 11.6323 18.2949C11.6323 18.1967 11.6708 18.1024 11.7396 18.0323C11.8083 17.9622 11.9019 17.9218 12.0001 17.9199C12.0982 17.9218 12.1918 17.9622 12.2605 18.0323C12.3293 18.1024 12.3678 18.1967 12.3678 18.2949C12.3678 18.3931 12.3293 18.4874 12.2605 18.5575C12.1917 18.6277 12.0982 18.668 12 18.6699Z" fill="#0A1E63"/>
<path d="M6.00003 10.4199C5.70385 10.4233 5.42094 10.5433 5.21268 10.7539C5.00443 10.9645 4.88763 11.2487 4.88763 11.5449C4.88764 11.8411 5.00445 12.1254 5.21271 12.336C5.42097 12.5466 5.70389 12.6666 6.00006 12.6699C6.29624 12.6666 6.57915 12.5466 6.7874 12.336C6.99566 12.1253 7.11246 11.8411 7.11245 11.5449C7.11245 11.2487 6.99564 10.9645 6.78738 10.7539C6.57912 10.5432 6.2962 10.4233 6.00003 10.4199ZM6.00003 11.9199C5.90184 11.918 5.80832 11.8777 5.73955 11.8075C5.67079 11.7374 5.63227 11.6431 5.63228 11.5449C5.63228 11.4467 5.6708 11.3524 5.73957 11.2823C5.80834 11.2122 5.90186 11.1718 6.00005 11.1699C6.09824 11.1718 6.19176 11.2122 6.26052 11.2823C6.32929 11.3524 6.3678 11.4467 6.3678 11.5449C6.3678 11.6431 6.32927 11.7374 6.26051 11.8075C6.19174 11.8777 6.09822 11.918 6.00003 11.9199Z" fill="#0A1E63"/>
<path d="M6.00003 13.7949C5.70385 13.7983 5.42094 13.9183 5.21268 14.1289C5.00443 14.3395 4.88763 14.6237 4.88763 14.9199C4.88764 15.2161 5.00445 15.5004 5.21271 15.711C5.42097 15.9216 5.70389 16.0416 6.00006 16.0449C6.29624 16.0416 6.57915 15.9216 6.7874 15.711C6.99566 15.5003 7.11246 15.2161 7.11245 14.9199C7.11245 14.6237 6.99564 14.3395 6.78738 14.1289C6.57912 13.9182 6.2962 13.7983 6.00003 13.7949ZM6.00003 15.2949C5.90184 15.293 5.80832 15.2527 5.73955 15.1825C5.67079 15.1124 5.63227 15.0181 5.63228 14.9199C5.63228 14.8217 5.6708 14.7274 5.73957 14.6573C5.80834 14.5872 5.90186 14.5468 6.00005 14.5449C6.09824 14.5468 6.19176 14.5872 6.26052 14.6573C6.32929 14.7274 6.3678 14.8217 6.3678 14.9199C6.3678 15.0181 6.32927 15.1124 6.26051 15.1825C6.19174 15.2527 6.09822 15.293 6.00003 15.2949Z" fill="#0A1E63"/>
<path d="M6.00003 17.1699C5.70385 17.1733 5.42094 17.2933 5.21268 17.5039C5.00443 17.7145 4.88763 17.9987 4.88763 18.2949C4.88764 18.5911 5.00445 18.8754 5.21271 19.086C5.42097 19.2966 5.70389 19.4166 6.00006 19.4199C6.29624 19.4166 6.57915 19.2966 6.7874 19.086C6.99566 18.8753 7.11246 18.5911 7.11245 18.2949C7.11245 17.9987 6.99564 17.7145 6.78738 17.5039C6.57912 17.2932 6.2962 17.1733 6.00003 17.1699ZM6.00003 18.6699C5.90184 18.668 5.80832 18.6277 5.73955 18.5575C5.67079 18.4874 5.63227 18.3931 5.63228 18.2949C5.63228 18.1967 5.6708 18.1024 5.73957 18.0323C5.80834 17.9622 5.90186 17.9218 6.00005 17.9199C6.09824 17.9218 6.19176 17.9622 6.26052 18.0323C6.32929 18.1024 6.3678 18.1967 6.3678 18.2949C6.3678 18.3931 6.32927 18.4874 6.26051 18.5575C6.19174 18.6277 6.09822 18.668 6.00003 18.6699Z" fill="#0A1E63"/>
</svg>
