<svg width="26" height="23" viewBox="0 0 26 23" fill="none" xmlns="http://www.w3.org/2000/svg">
<path d="M22.4286 2.71554H19.6734C19.6697 2.26353 19.4876 1.83127 19.1668 1.51283C18.846 1.1944 18.4124 1.01556 17.9604 1.01523C17.5083 1.0149 17.0745 1.19312 16.7532 1.51109C16.4319 1.82906 16.2492 2.26106 16.2448 2.71306C16.2475 2.71525 9.75253 2.71556 9.75516 2.71303C9.755 2.48791 9.71049 2.26502 9.62419 2.0571C9.53789 1.84918 9.41148 1.66029 9.25217 1.50122C9.09287 1.34215 8.9038 1.21601 8.69575 1.13001C8.4877 1.04401 8.26475 0.999836 8.03962 1C7.8145 1.00016 7.59161 1.04467 7.38369 1.13097C7.17577 1.21727 6.98688 1.34369 6.82781 1.50299C6.66874 1.66229 6.5426 1.85136 6.4566 2.05941C6.3706 2.26746 6.32643 2.49041 6.32659 2.71554H3.57143C2.88967 2.71628 2.23605 2.98744 1.75398 3.46951C1.2719 3.95159 1.00075 4.60521 1 5.28697V19.6927C1.00075 20.3744 1.2719 21.028 1.75398 21.5101C2.23605 21.9922 2.88967 22.2633 3.57143 22.2641H22.4286C23.1103 22.2633 23.7639 21.9922 24.246 21.5101C24.7281 21.028 24.9993 20.3744 25 19.6927V5.28697C24.9993 4.60521 24.7281 3.95159 24.246 3.46951C23.7639 2.98744 23.1103 2.71628 22.4286 2.71554ZM3.57143 3.57268H6.32659C6.32709 4.02707 6.50791 4.46268 6.82932 4.78386C7.15074 5.10505 7.58649 5.28554 8.04088 5.28571C8.15321 5.28354 8.26021 5.23735 8.33883 5.15707C8.41744 5.0768 8.4614 4.96887 8.46123 4.85651C8.46106 4.74415 8.41678 4.63635 8.33793 4.55631C8.25907 4.47627 8.15193 4.4304 8.03959 4.42857C7.81267 4.42832 7.59512 4.33807 7.43467 4.17761C7.27422 4.01715 7.18397 3.79959 7.18373 3.57268V2.71304C7.1839 2.48571 7.27436 2.26776 7.43523 2.10714C7.59609 1.94651 7.81418 1.85636 8.0415 1.85653C8.26883 1.85669 8.48678 1.94716 8.64741 2.10802C8.80804 2.26889 8.89819 2.48697 8.89802 2.7143H8.26646C8.15428 2.71655 8.04746 2.76269 7.96892 2.84282C7.89038 2.92295 7.84639 3.03068 7.84639 3.14288C7.8464 3.25509 7.89039 3.36282 7.96894 3.44294C8.04748 3.52307 8.15431 3.5692 8.26649 3.57144H16.2448C16.245 4.02583 16.4255 4.46158 16.7467 4.78299C17.0679 5.10441 17.5035 5.28523 17.9579 5.28573C18.0702 5.28371 18.1773 5.23767 18.256 5.15752C18.3347 5.07736 18.3788 4.9695 18.3788 4.85714C18.3788 4.74479 18.3347 4.63693 18.256 4.55677C18.1772 4.47662 18.0702 4.43059 17.9578 4.42858C17.7309 4.42834 17.5134 4.33809 17.3529 4.17763C17.1925 4.01717 17.1022 3.79961 17.102 3.57269V2.71304C17.1023 2.48571 17.1929 2.26783 17.3539 2.10732C17.5149 1.94681 17.7331 1.85682 17.9604 1.85716C18.1877 1.85749 18.4056 1.94811 18.5661 2.1091C18.7266 2.27008 18.8166 2.48823 18.8163 2.71555H18.1855C18.0733 2.71769 17.9664 2.76378 17.8877 2.84392C17.8091 2.92406 17.765 3.03186 17.765 3.14414C17.765 3.25641 17.8091 3.36421 17.8877 3.44434C17.9664 3.52448 18.0733 3.57057 18.1856 3.5727H22.4286C22.8831 3.57318 23.3188 3.75395 23.6402 4.07534C23.9616 4.39672 24.1424 4.83248 24.1429 5.28698V7.67342H1.85714V5.28697C1.85763 4.83246 2.0384 4.3967 2.35978 4.07532C2.68117 3.75393 3.11692 3.57317 3.57143 3.57268ZM22.4286 21.4069H3.57143C3.11692 21.4065 2.68117 21.2257 2.35978 20.9043C2.0384 20.5829 1.85763 20.1472 1.85714 19.6927V8.53055H24.1429V19.6927C24.1424 20.1472 23.9616 20.5829 23.6402 20.9043C23.3188 21.2257 22.8831 21.4065 22.4286 21.4069Z" fill="white" stroke="white"/>
<path d="M19.8572 9.82593C19.5188 9.82974 19.1954 9.96688 18.9574 10.2076C18.7194 10.4483 18.5859 10.7732 18.5859 11.1117C18.5859 11.4502 18.7194 11.775 18.9575 12.0157C19.1955 12.2564 19.5188 12.3936 19.8573 12.3974C20.1958 12.3935 20.5191 12.2564 20.7571 12.0157C20.9951 11.775 21.1286 11.4501 21.1286 11.1116C21.1286 10.7731 20.9951 10.4483 20.7571 10.2076C20.5191 9.96686 20.1957 9.82973 19.8572 9.82593ZM19.8572 11.5402C19.745 11.538 19.6381 11.4919 19.5596 11.4118C19.481 11.3316 19.437 11.2239 19.437 11.1116C19.437 10.9994 19.481 10.8916 19.5596 10.8115C19.6382 10.7314 19.7451 10.6853 19.8573 10.6831C19.9695 10.6853 20.0764 10.7314 20.155 10.8115C20.2335 10.8917 20.2776 10.9994 20.2776 11.1117C20.2776 11.2239 20.2335 11.3317 20.1549 11.4118C20.0763 11.4919 19.9695 11.538 19.8572 11.5402Z" fill="white"/>
<path d="M19.8572 13.6831C19.5188 13.6869 19.1954 13.8241 18.9574 14.0648C18.7194 14.3055 18.5859 14.6303 18.5859 14.9688C18.5859 15.3073 18.7194 15.6322 18.9575 15.8729C19.1955 16.1136 19.5188 16.2507 19.8573 16.2545C20.1958 16.2507 20.5191 16.1136 20.7571 15.8729C20.9951 15.6322 21.1286 15.3073 21.1286 14.9688C21.1286 14.6303 20.9951 14.3054 20.7571 14.0647C20.5191 13.824 20.1957 13.6869 19.8572 13.6831ZM19.8572 15.3974C19.745 15.3952 19.6381 15.3491 19.5596 15.2689C19.481 15.1888 19.437 15.081 19.437 14.9688C19.437 14.8566 19.481 14.7488 19.5596 14.6687C19.6382 14.5885 19.7451 14.5424 19.8573 14.5402C19.9695 14.5424 20.0764 14.5886 20.155 14.6687C20.2335 14.7488 20.2776 14.8566 20.2776 14.9688C20.2776 15.0811 20.2335 15.1888 20.1549 15.269C20.0763 15.3491 19.9695 15.3952 19.8572 15.3974Z" fill="white"/>
<path d="M19.8572 17.54C19.5188 17.5439 19.1954 17.681 18.9574 17.9217C18.7194 18.1624 18.5859 18.4873 18.5859 18.8258C18.5859 19.1643 18.7194 19.4891 18.9575 19.7298C19.1955 19.9705 19.5188 20.1077 19.8573 20.1115C20.1958 20.1077 20.5191 19.9705 20.7571 19.7298C20.9951 19.4891 21.1286 19.1642 21.1286 18.8257C21.1286 18.4872 20.9951 18.1624 20.7571 17.9217C20.5191 17.681 20.1957 17.5438 19.8572 17.54ZM19.8572 19.2543C19.745 19.2521 19.6381 19.206 19.5596 19.1259C19.481 19.0457 19.437 18.938 19.437 18.8257C19.437 18.7135 19.481 18.6057 19.5596 18.5256C19.6382 18.4455 19.7451 18.3994 19.8573 18.3972C19.9695 18.3994 20.0764 18.4455 20.155 18.5256C20.2335 18.6058 20.2776 18.7135 20.2776 18.8258C20.2776 18.938 20.2335 19.0458 20.1549 19.1259C20.0763 19.206 19.9695 19.2521 19.8572 19.2543Z" fill="white"/>
<path d="M13.0001 9.82593C12.6616 9.82974 12.3383 9.96688 12.1002 10.2076C11.8622 10.4483 11.7288 10.7732 11.7288 11.1117C11.7288 11.4502 11.8623 11.775 12.1003 12.0157C12.3383 12.2564 12.6616 12.3936 13.0001 12.3974C13.3386 12.3935 13.6619 12.2564 13.8999 12.0157C14.1379 11.775 14.2714 11.4501 14.2714 11.1116C14.2714 10.7731 14.1379 10.4483 13.8999 10.2076C13.6619 9.96686 13.3386 9.82973 13.0001 9.82593ZM13.0001 11.5402C12.8878 11.538 12.781 11.4919 12.7024 11.4118C12.6238 11.3316 12.5798 11.2239 12.5798 11.1116C12.5798 10.9994 12.6238 10.8916 12.7024 10.8115C12.781 10.7314 12.8879 10.6853 13.0001 10.6831C13.1123 10.6853 13.2192 10.7314 13.2978 10.8115C13.3764 10.8917 13.4204 10.9994 13.4204 11.1117C13.4204 11.2239 13.3763 11.3317 13.2978 11.4118C13.2192 11.4919 13.1123 11.538 13.0001 11.5402Z" fill="white"/>
<path d="M13.0001 13.6831C12.6616 13.6869 12.3383 13.8241 12.1002 14.0648C11.8622 14.3055 11.7288 14.6303 11.7288 14.9688C11.7288 15.3073 11.8623 15.6322 12.1003 15.8729C12.3383 16.1136 12.6616 16.2507 13.0001 16.2545C13.3386 16.2507 13.6619 16.1136 13.8999 15.8729C14.1379 15.6322 14.2714 15.3073 14.2714 14.9688C14.2714 14.6303 14.1379 14.3054 13.8999 14.0647C13.6619 13.824 13.3386 13.6869 13.0001 13.6831ZM13.0001 15.3974C12.8878 15.3952 12.781 15.3491 12.7024 15.2689C12.6238 15.1888 12.5798 15.081 12.5798 14.9688C12.5798 14.8566 12.6238 14.7488 12.7024 14.6687C12.781 14.5885 12.8879 14.5424 13.0001 14.5402C13.1123 14.5424 13.2192 14.5886 13.2978 14.6687C13.3764 14.7488 13.4204 14.8566 13.4204 14.9688C13.4204 15.0811 13.3763 15.1888 13.2978 15.269C13.2192 15.3491 13.1123 15.3952 13.0001 15.3974Z" fill="white"/>
<path d="M13.0001 17.54C12.6616 17.5439 12.3383 17.681 12.1002 17.9217C11.8622 18.1624 11.7288 18.4873 11.7288 18.8258C11.7288 19.1643 11.8623 19.4891 12.1003 19.7298C12.3383 19.9705 12.6616 20.1077 13.0001 20.1115C13.3386 20.1077 13.6619 19.9705 13.8999 19.7298C14.1379 19.4891 14.2714 19.1642 14.2714 18.8257C14.2714 18.4872 14.1379 18.1624 13.8999 17.9217C13.6619 17.681 13.3386 17.5438 13.0001 17.54ZM13.0001 19.2543C12.8878 19.2521 12.781 19.206 12.7024 19.1259C12.6238 19.0457 12.5798 18.938 12.5798 18.8257C12.5798 18.7135 12.6238 18.6057 12.7024 18.5256C12.781 18.4455 12.8879 18.3994 13.0001 18.3972C13.1123 18.3994 13.2192 18.4455 13.2978 18.5256C13.3764 18.6058 13.4204 18.7135 13.4204 18.8258C13.4204 18.938 13.3763 19.0458 13.2978 19.1259C13.2192 19.206 13.1123 19.2521 13.0001 19.2543Z" fill="white"/>
<path d="M6.14289 9.82593C5.8044 9.82974 5.48107 9.96688 5.24307 10.2076C5.00506 10.4483 4.87158 10.7732 4.87158 11.1117C4.87159 11.4502 5.00508 11.775 5.24309 12.0157C5.48111 12.2564 5.80444 12.3936 6.14293 12.3974C6.48141 12.3935 6.80474 12.2564 7.04275 12.0157C7.28075 11.775 7.41424 11.4501 7.41423 11.1116C7.41423 10.7731 7.28073 10.4483 7.04272 10.2076C6.80471 9.96686 6.48137 9.82973 6.14289 9.82593ZM6.14289 11.5402C6.03067 11.538 5.92379 11.4919 5.8452 11.4118C5.76662 11.3316 5.7226 11.2239 5.7226 11.1116C5.72261 10.9994 5.76663 10.8916 5.84522 10.8115C5.92381 10.7314 6.0307 10.6853 6.14291 10.6831C6.25513 10.6853 6.36201 10.7314 6.4406 10.8115C6.51918 10.8917 6.5632 10.9994 6.5632 11.1117C6.5632 11.2239 6.51917 11.3317 6.44058 11.4118C6.36199 11.4919 6.25511 11.538 6.14289 11.5402Z" fill="white"/>
<path d="M6.14289 13.6831C5.8044 13.6869 5.48107 13.8241 5.24307 14.0648C5.00506 14.3055 4.87158 14.6303 4.87158 14.9688C4.87159 15.3073 5.00508 15.6322 5.24309 15.8729C5.48111 16.1136 5.80444 16.2507 6.14293 16.2545C6.48141 16.2507 6.80474 16.1136 7.04275 15.8729C7.28075 15.6322 7.41424 15.3073 7.41423 14.9688C7.41423 14.6303 7.28073 14.3054 7.04272 14.0647C6.80471 13.824 6.48137 13.6869 6.14289 13.6831ZM6.14289 15.3974C6.03067 15.3952 5.92379 15.3491 5.8452 15.2689C5.76662 15.1888 5.7226 15.081 5.7226 14.9688C5.72261 14.8566 5.76663 14.7488 5.84522 14.6687C5.92381 14.5885 6.0307 14.5424 6.14291 14.5402C6.25513 14.5424 6.36201 14.5886 6.4406 14.6687C6.51918 14.7488 6.5632 14.8566 6.5632 14.9688C6.5632 15.0811 6.51917 15.1888 6.44058 15.269C6.36199 15.3491 6.25511 15.3952 6.14289 15.3974Z" fill="white"/>
<path d="M6.14289 17.54C5.8044 17.5439 5.48107 17.681 5.24307 17.9217C5.00506 18.1624 4.87158 18.4873 4.87158 18.8258C4.87159 19.1643 5.00508 19.4891 5.24309 19.7298C5.48111 19.9705 5.80444 20.1077 6.14293 20.1115C6.48141 20.1077 6.80474 19.9705 7.04275 19.7298C7.28075 19.4891 7.41424 19.1642 7.41423 18.8257C7.41423 18.4872 7.28073 18.1624 7.04272 17.9217C6.80471 17.681 6.48137 17.5438 6.14289 17.54ZM6.14289 19.2543C6.03067 19.2521 5.92379 19.206 5.8452 19.1259C5.76662 19.0457 5.7226 18.938 5.7226 18.8257C5.72261 18.7135 5.76663 18.6057 5.84522 18.5256C5.92381 18.4455 6.0307 18.3994 6.14291 18.3972C6.25513 18.3994 6.36201 18.4455 6.4406 18.5256C6.51918 18.6058 6.5632 18.7135 6.5632 18.8258C6.5632 18.938 6.51917 19.0458 6.44058 19.1259C6.36199 19.206 6.25511 19.2521 6.14289 19.2543Z" fill="white"/>
</svg>
