<svg width="24" height="24" viewBox="0 0 24 24" fill="none" xmlns="http://www.w3.org/2000/svg">
<path d="M11.085 3.1875H3.75C3.60082 3.1875 3.45774 3.24676 3.35225 3.35225C3.24676 3.45774 3.1875 3.60082 3.1875 3.75V11.085C3.1875 11.2342 3.24676 11.3773 3.35225 11.4828C3.45774 11.5883 3.60082 11.6475 3.75 11.6475H11.085C11.2339 11.6465 11.3764 11.5869 11.4817 11.4817C11.5869 11.3764 11.6465 11.2339 11.6475 11.085V3.75C11.6475 3.60082 11.5883 3.45774 11.4828 3.35225C11.3773 3.24676 11.2342 3.1875 11.085 3.1875ZM10.5225 10.5225H4.3125V4.3125H10.5225V10.5225Z" fill="white"/>
<path d="M13.8337 10.7288H19.335C19.4842 10.7288 19.6273 10.6695 19.7328 10.5641C19.8382 10.4586 19.8975 10.3155 19.8975 10.1663V4.66504C19.8965 4.51616 19.8369 4.37366 19.7317 4.2684C19.6264 4.1631 19.4839 4.10355 19.335 4.10254H13.8337C13.6846 4.10254 13.5415 4.16183 13.436 4.26731C13.3305 4.3728 13.2712 4.51586 13.2712 4.66504V10.1663C13.2712 10.3155 13.3305 10.4586 13.436 10.5641C13.5415 10.6695 13.6846 10.7288 13.8337 10.7288ZM14.3962 5.22754H18.7725V9.60379H14.3962V5.22754Z" fill="white"/>
<path d="M10.1662 13.2715H4.66492C4.51574 13.2715 4.37268 13.3308 4.26719 13.4363C4.1617 13.5417 4.10242 13.6848 4.10242 13.834V19.3353C4.10343 19.4841 4.16298 19.6266 4.26828 19.7319C4.37354 19.8372 4.51604 19.8968 4.66492 19.8978H10.1662C10.3154 19.8978 10.4584 19.8385 10.5639 19.733C10.6694 19.6275 10.7287 19.4844 10.7287 19.3353V13.834C10.7287 13.6848 10.6694 13.5417 10.5639 13.4363C10.4584 13.3308 10.3154 13.2715 10.1662 13.2715ZM9.60367 18.7728H5.22742V14.3965H9.60367V18.7728Z" fill="white"/>
<path d="M20.2499 12.3525H12.9149C12.766 12.3536 12.6235 12.4131 12.5183 12.5184C12.413 12.6237 12.3534 12.7662 12.3524 12.915V20.25C12.3524 20.3993 12.4117 20.5423 12.5172 20.6478C12.6227 20.7533 12.7657 20.8125 12.9149 20.8125H20.2499C20.3991 20.8125 20.5422 20.7533 20.6477 20.6478C20.7532 20.5423 20.8124 20.3993 20.8124 20.25V12.915C20.8124 12.7659 20.7532 12.6228 20.6477 12.5173C20.5422 12.4118 20.3991 12.3525 20.2499 12.3525ZM19.6874 19.6875H13.4774V13.4775H19.6874V19.6875Z" fill="white"/>
</svg>
