<svg width="24" height="24" viewBox="0 0 24 24" fill="none" xmlns="http://www.w3.org/2000/svg">
<path d="M22.1752 0H10.0965C9.61362 0.00264579 9.15117 0.236568 8.81008 0.650729C8.46898 1.06489 8.27694 1.62567 8.27586 2.21072V9.31409H1.51034C1.11011 9.31541 0.726584 9.50861 0.443576 9.85146C0.160568 10.1943 0.00109205 10.659 0 11.1438V18.0166C0.00688745 18.2828 0.0602727 18.5443 0.156637 18.7837C0.253001 19.0231 0.390155 19.235 0.55906 19.4055C0.727964 19.5761 0.924782 19.7013 1.13654 19.7729C1.3483 19.8446 1.57019 19.8611 1.78759 19.8213V23.5008C1.78792 23.5993 1.81222 23.6956 1.85746 23.7775C1.90269 23.8594 1.96684 23.9233 2.0419 23.9613C2.11696 23.9993 2.1996 24.0096 2.27948 23.991C2.35936 23.9724 2.43294 23.9257 2.49103 23.8567L5.82206 19.8463H10.9034C11.3037 19.845 11.6872 19.6518 11.9702 19.3089C12.2532 18.9661 12.4127 18.5015 12.4138 18.0166V13.2242H16.68L20.9958 18.4577C21.054 18.5273 21.1279 18.5744 21.2082 18.5931C21.2885 18.6119 21.3715 18.6014 21.4469 18.563C21.5224 18.5254 21.5871 18.4615 21.6328 18.3795C21.6784 18.2974 21.703 18.2008 21.7034 18.1018V13.2242H22.1752C22.4157 13.2235 22.6538 13.1654 22.8757 13.0531C23.0977 12.9409 23.2992 12.7767 23.4687 12.5699C23.6382 12.3632 23.7724 12.1179 23.8635 11.8483C23.9547 11.5786 24.0011 11.2898 24 10.9984V2.21072C23.9989 1.62481 23.8063 1.06327 23.4643 0.648967C23.1223 0.234663 22.6588 0.0013241 22.1752 0ZM11.5862 18.0166C11.5862 18.236 11.5143 18.4464 11.3862 18.6015C11.2582 18.7566 11.0845 18.8437 10.9034 18.8437H5.64827C5.53913 18.8456 5.43502 18.8997 5.35862 18.9941L2.61517 22.2927V19.32C2.61517 19.187 2.57157 19.0595 2.49397 18.9655C2.41637 18.8715 2.31112 18.8187 2.20138 18.8187H1.51034C1.33279 18.8188 1.16219 18.7351 1.03473 18.5853C0.907268 18.4356 0.832966 18.2316 0.827586 18.0166V11.1438C0.827586 10.9244 0.899519 10.7141 1.02756 10.5589C1.1556 10.4038 1.32927 10.3167 1.51034 10.3167H10.9034C11.0845 10.3167 11.2582 10.4038 11.3862 10.5589C11.5143 10.7141 11.5862 10.9244 11.5862 11.1438V18.0166ZM23.1724 10.9984C23.1724 11.3189 23.0673 11.6261 22.8803 11.8527C22.6933 12.0793 22.4396 12.2066 22.1752 12.2066H21.2896C21.1799 12.2066 21.0746 12.2594 20.997 12.3534C20.9194 12.4474 20.8758 12.5749 20.8758 12.7079V16.8787L17.1517 12.367C17.113 12.3205 17.0672 12.2838 17.0168 12.2588C16.9664 12.2339 16.9124 12.2212 16.8579 12.2216H12.4138V11.1438C12.4127 10.659 12.2532 10.1943 11.9702 9.85146C11.6872 9.50861 11.3037 9.31541 10.9034 9.31409H9.10344V2.21072C9.10344 1.8903 9.20851 1.58301 9.39553 1.35644C9.58255 1.12988 9.8362 1.00259 10.1007 1.00259H22.1752C22.4396 1.00259 22.6933 1.12988 22.8803 1.35644C23.0673 1.58301 23.1724 1.8903 23.1724 2.21072V10.9984Z" fill="#0A1E63"/>
<path d="M4.55173 13.1641C4.26408 13.2055 3.99896 13.3733 3.8066 13.6357C3.61424 13.8981 3.508 14.2368 3.508 14.5877C3.508 14.9387 3.61424 15.2774 3.8066 15.5398C3.99896 15.8022 4.26408 15.97 4.55173 16.0114C4.83938 15.97 5.1045 15.8022 5.29686 15.5398C5.48922 15.2774 5.59547 14.9387 5.59547 14.5877C5.59547 14.2368 5.48922 13.8981 5.29686 13.6357C5.1045 13.3733 4.83938 13.2055 4.55173 13.1641ZM4.55173 15.0088C4.45735 15.0088 4.36684 14.9634 4.3001 14.8826C4.23336 14.8017 4.19587 14.6921 4.19587 14.5777C4.19587 14.4634 4.23336 14.3537 4.3001 14.2729C4.36684 14.192 4.45735 14.1466 4.55173 14.1466C4.64611 14.1466 4.73663 14.192 4.80336 14.2729C4.8701 14.3537 4.90759 14.4634 4.90759 14.5777C4.90759 14.6921 4.8701 14.8017 4.80336 14.8826C4.73663 14.9634 4.64611 15.0088 4.55173 15.0088Z" fill="#0A1E63"/>
<path d="M7.86203 13.1641C7.57438 13.2055 7.30927 13.3733 7.1169 13.6357C6.92454 13.8981 6.8183 14.2368 6.8183 14.5877C6.8183 14.9387 6.92454 15.2774 7.1169 15.5398C7.30927 15.8022 7.57438 15.97 7.86203 16.0114C8.14968 15.97 8.4148 15.8022 8.60716 15.5398C8.79952 15.2774 8.90577 14.9387 8.90577 14.5877C8.90577 14.2368 8.79952 13.8981 8.60716 13.6357C8.4148 13.3733 8.14968 13.2055 7.86203 13.1641ZM7.86203 15.0088C7.76765 15.0088 7.67714 14.9634 7.6104 14.8826C7.54366 14.8017 7.50617 14.6921 7.50617 14.5777C7.50617 14.4634 7.54366 14.3537 7.6104 14.2729C7.67714 14.192 7.76765 14.1466 7.86203 14.1466C7.95641 14.1466 8.04693 14.192 8.11367 14.2729C8.1804 14.3537 8.2179 14.4634 8.2179 14.5777C8.2179 14.6921 8.1804 14.8017 8.11367 14.8826C8.04693 14.9634 7.95641 15.0088 7.86203 15.0088Z" fill="#0A1E63"/>
<path d="M12.4137 4.98242C12.0999 4.98242 11.7988 5.13347 11.5769 5.40235C11.355 5.67122 11.2303 6.03589 11.2303 6.41613C11.2303 6.79637 11.355 7.16104 11.5769 7.42991C11.7988 7.69879 12.0999 7.84984 12.4137 7.84984C12.7276 7.84984 13.0286 7.69879 13.2506 7.42991C13.4725 7.16104 13.5972 6.79637 13.5972 6.41613C13.5972 6.03589 13.4725 5.67122 13.2506 5.40235C13.0286 5.13347 12.7276 4.98242 12.4137 4.98242ZM12.4137 6.84724C12.3194 6.84724 12.2288 6.80182 12.1621 6.72097C12.0954 6.64012 12.0579 6.53047 12.0579 6.41613C12.0579 6.30179 12.0954 6.19214 12.1621 6.11129C12.2288 6.03044 12.3194 5.98501 12.4137 5.98501C12.4952 6.00369 12.5687 6.05623 12.6216 6.13357C12.6745 6.2109 12.7034 6.30818 12.7034 6.40861C12.7034 6.50904 12.6745 6.60632 12.6216 6.68365C12.5687 6.76099 12.4952 6.81353 12.4137 6.83221V6.84724Z" fill="#0A1E63"/>
<path d="M19.0924 4.98242C18.7785 4.98242 18.4775 5.13347 18.2556 5.40235C18.0336 5.67122 17.9089 6.03589 17.9089 6.41613C17.9089 6.79637 18.0336 7.16104 18.2556 7.42991C18.4775 7.69879 18.7785 7.84984 19.0924 7.84984C19.4063 7.84984 19.7073 7.69879 19.9292 7.42991C20.1511 7.16104 20.2758 6.79637 20.2758 6.41613C20.2758 6.03589 20.1511 5.67122 19.9292 5.40235C19.7073 5.13347 19.4063 4.98242 19.0924 4.98242ZM19.0924 6.84724C18.998 6.84724 18.9075 6.80182 18.8408 6.72097C18.774 6.64012 18.7365 6.53047 18.7365 6.41613C18.7365 6.30179 18.774 6.19214 18.8408 6.11129C18.9075 6.03044 18.998 5.98501 19.0924 5.98501C19.1738 6.00369 19.2474 6.05623 19.3002 6.13357C19.3531 6.2109 19.3821 6.30818 19.3821 6.40861C19.3821 6.50904 19.3531 6.60632 19.3002 6.68365C19.2474 6.76099 19.1738 6.81353 19.0924 6.83221V6.84724Z" fill="#0A1E63"/>
<path d="M15.7241 4.98242C15.4102 4.98242 15.1092 5.13347 14.8873 5.40235C14.6653 5.67122 14.5406 6.03589 14.5406 6.41613C14.5406 6.79637 14.6653 7.16104 14.8873 7.42991C15.1092 7.69879 15.4102 7.84984 15.7241 7.84984C16.038 7.84984 16.339 7.69879 16.5609 7.42991C16.7829 7.16104 16.9075 6.79637 16.9075 6.41613C16.9075 6.03589 16.7829 5.67122 16.5609 5.40235C16.339 5.13347 16.038 4.98242 15.7241 4.98242ZM15.7241 6.84724C15.6297 6.84724 15.5392 6.80182 15.4725 6.72097C15.4057 6.64012 15.3682 6.53047 15.3682 6.41613C15.3682 6.30179 15.4057 6.19214 15.4725 6.11129C15.5392 6.03044 15.6297 5.98501 15.7241 5.98501C15.8056 6.00369 15.8791 6.05623 15.932 6.13357C15.9848 6.2109 16.0138 6.30818 16.0138 6.40861C16.0138 6.50904 15.9848 6.60632 15.932 6.68365C15.8791 6.76099 15.8056 6.81353 15.7241 6.83221V6.84724Z" fill="#0A1E63"/>
</svg>
