<svg width="24" height="24" viewBox="0 0 24 24" fill="none" xmlns="http://www.w3.org/2000/svg">
<path d="M23.7288 4.26407L19.7364 0.271187C19.5627 0.0975139 19.3272 0 19.0817 0C18.8362 0 18.6007 0.0975139 18.4271 0.271064L14.434 4.2642C14.4335 4.26469 14.433 4.26543 14.4324 4.26593L6.77349 11.9248C6.60672 12.0917 6.50995 12.3156 6.50279 12.5514L6.37751 16.6693C6.36973 16.9245 6.46774 17.1715 6.6482 17.3521C6.82212 17.5258 7.05763 17.6231 7.30278 17.6231C7.31216 17.6231 7.32166 17.623 7.33104 17.6226L11.4488 17.497C11.6845 17.4898 11.9085 17.393 12.0753 17.2264L23.7288 5.57311C24.0904 5.21181 24.0904 4.62562 23.7288 4.26407ZM19.0814 7.60201L16.3979 4.9189L19.0817 2.23504L21.765 4.91865L19.0814 7.60201ZM11.0256 15.6578L8.25804 15.7423L8.34223 12.9747L15.0886 6.22818L17.7722 8.91142L11.0256 15.6578Z" fill="#0A1E63"/>
<path d="M16.3167 14.4533C15.8054 14.4533 15.3909 14.8676 15.3909 15.379V22.1487H1.85153V8.60934H8.62122C9.13249 8.60934 9.54698 8.19497 9.54698 7.68358C9.54698 7.17219 9.13249 6.75781 8.62122 6.75781H0.925765C0.414496 6.75781 0 7.17219 0 7.68358V23.0744C0 23.5858 0.414496 24.0001 0.925765 24.0001H16.3165C16.8278 24.0001 17.2423 23.5858 17.2423 23.0744V15.3789C17.2424 14.8676 16.8279 14.4533 16.3167 14.4533Z" fill="#0A1E63"/>
</svg>
