<svg width="24" height="24" viewBox="0 0 24 24" fill="none" xmlns="http://www.w3.org/2000/svg">
<path d="M12 0C9.62661 2.86721e-06 7.30654 0.703793 5.33315 2.02237C3.35976 3.34095 1.82169 5.2151 0.913445 7.40781C0.00519653 9.60052 -0.232441 12.0133 0.230585 14.3411C0.69361 16.6689 1.8365 18.8071 3.51473 20.4853C5.19297 22.1635 7.33116 23.3064 9.65893 23.7694C11.9867 24.2324 14.3995 23.9948 16.5922 23.0865C18.7849 22.1783 20.6591 20.6402 21.9776 18.6668C23.2962 16.6934 24 14.3734 24 12C23.9964 8.81849 22.731 5.76833 20.4813 3.51868C18.2316 1.26902 15.1815 0.00358975 12 0ZM12 21.6306C10.0952 21.6306 8.23325 21.0658 6.64951 20.0076C5.06576 18.9493 3.83139 17.4452 3.10247 15.6855C2.37355 13.9257 2.18284 11.9893 2.55444 10.1212C2.92604 8.253 3.84326 6.53699 5.19013 5.19012C6.53699 3.84326 8.253 2.92603 10.1212 2.55443C11.9893 2.18283 13.9257 2.37355 15.6855 3.10246C17.4452 3.83138 18.9493 5.06576 20.0076 6.6495C21.0658 8.23325 21.6306 10.0952 21.6306 12C21.6277 14.5533 20.6122 17.0012 18.8067 18.8067C17.0012 20.6122 14.5533 21.6277 12 21.6306V21.6306Z" fill="#0A1E63"/>
<path d="M11.4799 8.48179C12.3659 8.48179 13.0841 7.76357 13.0841 6.87761C13.0841 5.99165 12.3659 5.27344 11.4799 5.27344C10.5939 5.27344 9.87573 5.99165 9.87573 6.87761C9.87573 7.76357 10.5939 8.48179 11.4799 8.48179Z" fill="#0A1E63"/>
<path d="M10.4295 9.91976C10.2089 9.9589 10.0091 10.0745 9.86516 10.2462C9.72124 10.4179 9.64238 10.6348 9.64241 10.8589C9.64238 10.9841 9.66702 11.1082 9.71493 11.2239C9.76284 11.3396 9.83309 11.4447 9.92164 11.5333C10.0102 11.6218 10.1153 11.6921 10.231 11.74C10.3468 11.7879 10.4708 11.8125 10.596 11.8125H10.6905V17.0949H10.1804C9.96395 17.0949 9.7564 17.1809 9.60338 17.3339C9.45035 17.4869 9.36438 17.6945 9.36438 17.9109C9.36438 18.1273 9.45035 18.3348 9.60338 18.4879C9.7564 18.6409 9.96395 18.7269 10.1804 18.7269H13.8196C14.0361 18.7269 14.2436 18.6409 14.3966 18.4879C14.5497 18.3348 14.6356 18.1273 14.6356 17.9109C14.6356 17.6945 14.5497 17.4869 14.3966 17.3339C14.2436 17.1809 14.0361 17.0949 13.8196 17.0949H13.315V10.3517C13.315 10.23 13.2881 10.1099 13.2361 9.99985C13.1841 9.88983 13.1083 9.7927 13.0143 9.71546C12.9203 9.63822 12.8103 9.58278 12.6922 9.55313C12.5742 9.52348 12.4511 9.52036 12.3317 9.544C11.5084 9.70701 10.4621 9.91402 10.4295 9.91976Z" fill="#0A1E63"/>
</svg>
