<svg width="32" height="32" viewBox="0 0 32 32" fill="none" xmlns="http://www.w3.org/2000/svg">
<g clip-path="url(#clip0_51_6304)" filter="url(#filter0_d_51_6304)">
<path d="M4.30302 22.9591C5.47189 23.4573 6.7294 23.7141 8.00002 23.7141C9.27063 23.7141 10.5281 23.4573 11.697 22.9591C11.7869 22.9205 11.8636 22.8565 11.9174 22.7748C11.9713 22.6931 12 22.5974 12 22.4996C12.0022 21.8088 11.7963 21.1334 11.409 20.5613C11.0218 19.9893 10.4712 19.5472 9.82902 19.2926L9.59152 19.1976C9.81719 18.9011 9.95553 18.5474 9.99096 18.1765C10.0264 17.8055 9.95748 17.4321 9.79201 17.0982C9.62655 16.7643 9.3711 16.4833 9.05448 16.2869C8.73785 16.0904 8.37264 15.9863 8.00002 15.9863C7.6274 15.9863 7.26218 16.0904 6.94556 16.2869C6.62893 16.4833 6.37349 16.7643 6.20802 17.0982C6.04256 17.4321 5.97365 17.8055 6.00908 18.1765C6.0445 18.5474 6.18285 18.9011 6.40852 19.1976L6.17152 19.2926C5.52921 19.547 4.97847 19.9891 4.59112 20.5612C4.20377 21.1332 3.99778 21.8087 4.00002 22.4996C4.00003 22.5974 4.02874 22.6931 4.0826 22.7748C4.13646 22.8565 4.2131 22.9205 4.30302 22.9591ZM8.00002 16.9996C8.1978 16.9996 8.39114 17.0582 8.55559 17.1681C8.72004 17.278 8.84821 17.4342 8.9239 17.6169C8.99959 17.7996 9.01939 18.0007 8.9808 18.1947C8.94222 18.3887 8.84698 18.5668 8.70712 18.7067C8.56727 18.8465 8.38909 18.9418 8.19511 18.9804C8.00113 19.0189 7.80006 18.9991 7.61733 18.9235C7.43461 18.8478 7.27843 18.7196 7.16855 18.5551C7.05867 18.3907 7.00002 18.1974 7.00002 17.9996C7.00002 17.7344 7.10537 17.48 7.29291 17.2925C7.48045 17.1049 7.7348 16.9996 8.00002 16.9996ZM6.54252 20.2211L7.09652 19.9996H8.90352L9.45752 20.2211C9.86179 20.3811 10.216 20.6463 10.4834 20.9891C10.7508 21.3319 10.9217 21.74 10.9785 22.1711C9.05903 22.8961 6.94101 22.8961 5.02152 22.1711C5.07831 21.74 5.24926 21.3319 5.51667 20.9891C5.78408 20.6463 6.13825 20.3811 6.54252 20.2211Z" fill="#0A1E63"/>
<path d="M4.30302 6.95908C5.47159 7.45825 6.7293 7.7151 8.00002 7.71408C9.27074 7.7151 10.5284 7.45825 11.697 6.95908C11.7869 6.92053 11.8636 6.85645 11.9174 6.77477C11.9713 6.6931 12 6.59741 12 6.49958C12.0022 5.80879 11.7963 5.13336 11.409 4.56131C11.0218 3.98927 10.4712 3.54715 9.82902 3.29258L9.59152 3.19758C9.81719 2.90107 9.95553 2.5474 9.99096 2.17647C10.0264 1.80554 9.95748 1.43208 9.79201 1.09821C9.62655 0.764344 9.3711 0.48334 9.05448 0.286882C8.73785 0.0904252 8.37264 -0.0136719 8.00002 -0.0136719C7.6274 -0.0136719 7.26218 0.0904252 6.94556 0.286882C6.62893 0.48334 6.37349 0.764344 6.20802 1.09821C6.04256 1.43208 5.97365 1.80554 6.00908 2.17647C6.0445 2.5474 6.18285 2.90107 6.40852 3.19758L6.17152 3.29258C5.52921 3.54702 4.97847 3.98909 4.59112 4.56115C4.20377 5.13321 3.99778 5.80872 4.00002 6.49958C4.00003 6.59741 4.02874 6.6931 4.0826 6.77477C4.13646 6.85645 4.2131 6.92053 4.30302 6.95908ZM8.00002 0.999579C8.1978 0.999579 8.39114 1.05823 8.55559 1.16811C8.72004 1.27799 8.84821 1.43417 8.9239 1.6169C8.99959 1.79962 9.01939 2.00069 8.9808 2.19467C8.94222 2.38865 8.84698 2.56683 8.70712 2.70669C8.56727 2.84654 8.38909 2.94178 8.19511 2.98036C8.00113 3.01895 7.80006 2.99915 7.61733 2.92346C7.43461 2.84777 7.27843 2.7196 7.16855 2.55515C7.05867 2.3907 7.00002 2.19736 7.00002 1.99958C7.00002 1.73436 7.10537 1.48001 7.29291 1.29247C7.48045 1.10494 7.7348 0.999579 8.00002 0.999579ZM6.54252 4.22108L7.09652 3.99958H8.90352L9.45752 4.22108C9.86179 4.38111 10.216 4.64627 10.4834 4.98911C10.7508 5.33194 10.9217 5.74001 10.9785 6.17108C9.05903 6.89608 6.94101 6.89608 5.02152 6.17108C5.07831 5.74001 5.24926 5.33194 5.51667 4.98911C5.78408 4.64627 6.13825 4.38111 6.54252 4.22108Z" fill="#0A1E63"/>
<path d="M25.829 3.29258L25.5915 3.19758C25.8172 2.90107 25.9555 2.5474 25.991 2.17647C26.0264 1.80554 25.9575 1.43208 25.792 1.09821C25.6265 0.764344 25.3711 0.48334 25.0545 0.286882C24.7379 0.0904252 24.3726 -0.0136719 24 -0.0136719C23.6274 -0.0136719 23.2622 0.0904252 22.9456 0.286882C22.6289 0.48334 22.3735 0.764344 22.208 1.09821C22.0426 1.43208 21.9737 1.80554 22.0091 2.17647C22.0445 2.5474 22.1828 2.90107 22.4085 3.19758L22.1715 3.29258C21.5292 3.54702 20.9785 3.98909 20.5911 4.56115C20.2038 5.13321 19.9978 5.80872 20 6.49958C20 6.59741 20.0287 6.6931 20.0826 6.77477C20.1365 6.85645 20.2131 6.92053 20.303 6.95908C21.4716 7.45825 22.7293 7.7151 24 7.71408C25.2707 7.7151 26.5284 7.45825 27.697 6.95908C27.7869 6.92053 27.8636 6.85645 27.9174 6.77477C27.9713 6.6931 28 6.59741 28 6.49958C28.0022 5.80879 27.7963 5.13336 27.409 4.56131C27.0218 3.98927 26.4712 3.54715 25.829 3.29258ZM24 0.999579C24.1978 0.999579 24.3911 1.05823 24.5556 1.16811C24.72 1.27799 24.8482 1.43417 24.9239 1.6169C24.9996 1.79962 25.0194 2.00069 24.9808 2.19467C24.9422 2.38865 24.847 2.56683 24.7071 2.70669C24.5673 2.84654 24.3891 2.94178 24.1951 2.98036C24.0011 3.01895 23.8001 2.99915 23.6173 2.92346C23.4346 2.84777 23.2784 2.7196 23.1685 2.55515C23.0587 2.3907 23 2.19736 23 1.99958C23 1.73436 23.1054 1.48001 23.2929 1.29247C23.4804 1.10494 23.7348 0.999579 24 0.999579ZM21.0215 6.17108C21.0783 5.74001 21.2493 5.33194 21.5167 4.98911C21.7841 4.64627 22.1382 4.38111 22.5425 4.22108L23.0965 3.99958H24.9035L25.4575 4.22108C25.8618 4.38111 26.216 4.64627 26.4834 4.98911C26.7508 5.33194 26.9217 5.74001 26.9785 6.17108C25.059 6.89608 22.941 6.89608 21.0215 6.17108Z" fill="#0A1E63"/>
<path d="M25.829 19.2926L25.5915 19.1976C25.8172 18.9011 25.9555 18.5474 25.991 18.1765C26.0264 17.8055 25.9575 17.4321 25.792 17.0982C25.6265 16.7643 25.3711 16.4833 25.0545 16.2869C24.7379 16.0904 24.3726 15.9863 24 15.9863C23.6274 15.9863 23.2622 16.0904 22.9456 16.2869C22.6289 16.4833 22.3735 16.7643 22.208 17.0982C22.0426 17.4321 21.9737 17.8055 22.0091 18.1765C22.0445 18.5474 22.1828 18.9011 22.4085 19.1976L22.1715 19.2926C21.5292 19.547 20.9785 19.9891 20.5911 20.5612C20.2038 21.1332 19.9978 21.8087 20 22.4996C20 22.5974 20.0287 22.6931 20.0826 22.7748C20.1365 22.8565 20.2131 22.9205 20.303 22.9591C21.4719 23.4573 22.7294 23.7141 24 23.7141C25.2706 23.7141 26.5281 23.4573 27.697 22.9591C27.7869 22.9205 27.8636 22.8565 27.9174 22.7748C27.9713 22.6931 28 22.5974 28 22.4996C28.0022 21.8088 27.7963 21.1334 27.409 20.5613C27.0218 19.9893 26.4712 19.5472 25.829 19.2926ZM24 16.9996C24.1978 16.9996 24.3911 17.0582 24.5556 17.1681C24.72 17.278 24.8482 17.4342 24.9239 17.6169C24.9996 17.7996 25.0194 18.0007 24.9808 18.1947C24.9422 18.3887 24.847 18.5668 24.7071 18.7067C24.5673 18.8465 24.3891 18.9418 24.1951 18.9804C24.0011 19.0189 23.8001 18.9991 23.6173 18.9235C23.4346 18.8478 23.2784 18.7196 23.1685 18.5551C23.0587 18.3907 23 18.1974 23 17.9996C23 17.7344 23.1054 17.48 23.2929 17.2925C23.4804 17.1049 23.7348 16.9996 24 16.9996ZM21.0215 22.1711C21.0783 21.74 21.2493 21.3319 21.5167 20.9891C21.7841 20.6463 22.1382 20.3811 22.5425 20.2211L23.0965 19.9996H24.9035L25.4575 20.2211C25.8618 20.3811 26.216 20.6463 26.4834 20.9891C26.7508 21.3319 26.9217 21.74 26.9785 22.1711C25.059 22.8961 22.941 22.8961 21.0215 22.1711Z" fill="#0A1E63"/>
<path d="M21.5 12C21.5 9.519 19.145 7.5 16.25 7.5C13.355 7.5 11 9.519 11 12C11.0224 12.7563 11.2411 13.4937 11.6345 14.14C12.0279 14.7863 12.5825 15.3192 13.244 15.6865L12.731 17.225C12.6831 17.3676 12.6817 17.5216 12.7269 17.665C12.7721 17.8085 12.8616 17.9339 12.9826 18.0232C13.1036 18.1126 13.2497 18.1613 13.4001 18.1623C13.5505 18.1633 13.6973 18.1167 13.8195 18.029L15.9695 16.492C16.0615 16.497 16.1545 16.5 16.2485 16.5C19.145 16.5 21.5 14.481 21.5 12ZM16.25 15.5C16.1195 15.5 15.9905 15.493 15.8625 15.4835C15.7457 15.4737 15.6293 15.5061 15.5345 15.575L13.9605 16.7L14.325 15.6065C14.3633 15.4923 14.3591 15.3681 14.3132 15.2568C14.2672 15.1455 14.1827 15.0545 14.075 15.0005C13.4835 14.7439 12.9757 14.3269 12.609 13.7966C12.2423 13.2663 12.0313 12.644 12 12C12 10.07 13.9065 8.5 16.25 8.5C18.5935 8.5 20.5 10.07 20.5 12C20.5 13.93 18.5935 15.5 16.25 15.5Z" fill="#0A1E63"/>
<path d="M5.62602 8.33301C4.79133 10.7061 4.79133 13.2929 5.62602 15.666L6.56902 15.333C5.81042 13.1754 5.81042 10.8236 6.56902 8.66601L5.62602 8.33301Z" fill="#0A1E63"/>
<path d="M13.1425 21.5859L12.8575 22.5444C14.9085 23.1518 17.0915 23.1518 19.1425 22.5444L18.8575 21.5859C16.9921 22.1354 15.0079 22.1354 13.1425 21.5859Z" fill="#0A1E63"/>
<path d="M26.374 15.666C27.2087 13.2929 27.2087 10.7061 26.374 8.33301L25.431 8.66601C26.1896 10.8236 26.1896 13.1754 25.431 15.333L26.374 15.666Z" fill="#0A1E63"/>
<path d="M20.7615 3.20399L21.2385 2.32499C19.6294 1.45536 17.8291 1 16 1C14.1709 1 12.3706 1.45536 10.7615 2.32499L11.2385 3.20399C12.7057 2.42802 14.3403 2.02239 16 2.02239C17.6597 2.02239 19.2943 2.42802 20.7615 3.20399Z" fill="#0A1E63"/>
</g>
<defs>
<filter id="filter0_d_51_6304" x="0" y="0" width="32" height="32" filterUnits="userSpaceOnUse" color-interpolation-filters="sRGB">
<feFlood flood-opacity="0" result="BackgroundImageFix"/>
<feColorMatrix in="SourceAlpha" type="matrix" values="0 0 0 0 0 0 0 0 0 0 0 0 0 0 0 0 0 0 127 0" result="hardAlpha"/>
<feOffset dy="4"/>
<feGaussianBlur stdDeviation="2"/>
<feComposite in2="hardAlpha" operator="out"/>
<feColorMatrix type="matrix" values="0 0 0 0 0 0 0 0 0 0 0 0 0 0 0 0 0 0 0.25 0"/>
<feBlend mode="normal" in2="BackgroundImageFix" result="effect1_dropShadow_51_6304"/>
<feBlend mode="normal" in="SourceGraphic" in2="effect1_dropShadow_51_6304" result="shape"/>
</filter>
<clipPath id="clip0_51_6304">
<rect width="24" height="24" fill="white" transform="translate(4)"/>
</clipPath>
</defs>
</svg>
