<svg width="24" height="24" viewBox="0 0 24 24" fill="none" xmlns="http://www.w3.org/2000/svg">
<g clip-path="url(#clip0_51_6304)">
<path d="M0.303018 22.9591C1.47189 23.4573 2.7294 23.7141 4.00002 23.7141C5.27063 23.7141 6.52814 23.4573 7.69702 22.9591C7.78694 22.9205 7.86358 22.8565 7.91744 22.7748C7.97129 22.6931 8.00001 22.5974 8.00002 22.4996C8.00222 21.8088 7.79628 21.1334 7.40903 20.5613C7.02178 19.9893 6.47119 19.5472 5.82902 19.2926L5.59152 19.1976C5.81719 18.9011 5.95553 18.5474 5.99096 18.1765C6.02638 17.8055 5.95748 17.4321 5.79201 17.0982C5.62655 16.7643 5.3711 16.4833 5.05448 16.2869C4.73785 16.0904 4.37264 15.9863 4.00002 15.9863C3.6274 15.9863 3.26218 16.0904 2.94556 16.2869C2.62893 16.4833 2.37349 16.7643 2.20802 17.0982C2.04256 17.4321 1.97365 17.8055 2.00908 18.1765C2.0445 18.5474 2.18285 18.9011 2.40852 19.1976L2.17152 19.2926C1.52921 19.547 0.978475 19.9891 0.591124 20.5612C0.203774 21.1332 -0.00221545 21.8087 1.79711e-05 22.4996C2.87762e-05 22.5974 0.028742 22.6931 0.0826005 22.7748C0.136459 22.8565 0.213096 22.9205 0.303018 22.9591ZM4.00002 16.9996C4.1978 16.9996 4.39114 17.0582 4.55559 17.1681C4.72004 17.278 4.84821 17.4342 4.9239 17.6169C4.99959 17.7996 5.01939 18.0007 4.9808 18.1947C4.94222 18.3887 4.84698 18.5668 4.70712 18.7067C4.56727 18.8465 4.38909 18.9418 4.19511 18.9804C4.00113 19.0189 3.80006 18.9991 3.61733 18.9235C3.43461 18.8478 3.27843 18.7196 3.16855 18.5551C3.05867 18.3907 3.00002 18.1974 3.00002 17.9996C3.00002 17.7344 3.10537 17.48 3.29291 17.2925C3.48045 17.1049 3.7348 16.9996 4.00002 16.9996ZM2.54252 20.2211L3.09652 19.9996H4.90352L5.45752 20.2211C5.86179 20.3811 6.21595 20.6463 6.48337 20.9891C6.75078 21.3319 6.92173 21.74 6.97852 22.1711C5.05903 22.8961 2.94101 22.8961 1.02152 22.1711C1.07831 21.74 1.24926 21.3319 1.51667 20.9891C1.78408 20.6463 2.13825 20.3811 2.54252 20.2211Z" fill="white"/>
<path d="M0.303018 6.95908C1.47159 7.45825 2.7293 7.7151 4.00002 7.71408C5.27074 7.7151 6.52845 7.45825 7.69702 6.95908C7.78694 6.92053 7.86358 6.85645 7.91744 6.77477C7.97129 6.6931 8.00001 6.59741 8.00002 6.49958C8.00222 5.80879 7.79628 5.13336 7.40903 4.56131C7.02178 3.98927 6.47119 3.54715 5.82902 3.29258L5.59152 3.19758C5.81719 2.90107 5.95553 2.5474 5.99096 2.17647C6.02638 1.80554 5.95748 1.43208 5.79201 1.09821C5.62655 0.764344 5.3711 0.48334 5.05448 0.286882C4.73785 0.0904252 4.37264 -0.0136719 4.00002 -0.0136719C3.6274 -0.0136719 3.26218 0.0904252 2.94556 0.286882C2.62893 0.48334 2.37349 0.764344 2.20802 1.09821C2.04256 1.43208 1.97365 1.80554 2.00908 2.17647C2.0445 2.5474 2.18285 2.90107 2.40852 3.19758L2.17152 3.29258C1.52921 3.54702 0.978475 3.98909 0.591124 4.56115C0.203774 5.13321 -0.00221545 5.80872 1.79711e-05 6.49958C2.87762e-05 6.59741 0.028742 6.6931 0.0826005 6.77477C0.136459 6.85645 0.213096 6.92053 0.303018 6.95908ZM4.00002 0.999579C4.1978 0.999579 4.39114 1.05823 4.55559 1.16811C4.72004 1.27799 4.84821 1.43417 4.9239 1.6169C4.99959 1.79962 5.01939 2.00069 4.9808 2.19467C4.94222 2.38865 4.84698 2.56683 4.70712 2.70669C4.56727 2.84654 4.38909 2.94178 4.19511 2.98036C4.00113 3.01895 3.80006 2.99915 3.61733 2.92346C3.43461 2.84777 3.27843 2.7196 3.16855 2.55515C3.05867 2.3907 3.00002 2.19736 3.00002 1.99958C3.00002 1.73436 3.10537 1.48001 3.29291 1.29247C3.48045 1.10494 3.7348 0.999579 4.00002 0.999579ZM2.54252 4.22108L3.09652 3.99958H4.90352L5.45752 4.22108C5.86179 4.38111 6.21595 4.64627 6.48337 4.98911C6.75078 5.33194 6.92173 5.74001 6.97852 6.17108C5.05903 6.89608 2.94101 6.89608 1.02152 6.17108C1.07831 5.74001 1.24926 5.33194 1.51667 4.98911C1.78408 4.64627 2.13825 4.38111 2.54252 4.22108Z" fill="white"/>
<path d="M21.829 3.29258L21.5915 3.19758C21.8172 2.90107 21.9555 2.5474 21.991 2.17647C22.0264 1.80554 21.9575 1.43208 21.792 1.09821C21.6265 0.764344 21.3711 0.48334 21.0545 0.286882C20.7379 0.0904252 20.3726 -0.0136719 20 -0.0136719C19.6274 -0.0136719 19.2622 0.0904252 18.9456 0.286882C18.6289 0.48334 18.3735 0.764344 18.208 1.09821C18.0426 1.43208 17.9737 1.80554 18.0091 2.17647C18.0445 2.5474 18.1828 2.90107 18.4085 3.19758L18.1715 3.29258C17.5292 3.54702 16.9785 3.98909 16.5911 4.56115C16.2038 5.13321 15.9978 5.80872 16 6.49958C16 6.59741 16.0287 6.6931 16.0826 6.77477C16.1365 6.85645 16.2131 6.92053 16.303 6.95908C17.4716 7.45825 18.7293 7.7151 20 7.71408C21.2707 7.7151 22.5284 7.45825 23.697 6.95908C23.7869 6.92053 23.8636 6.85645 23.9174 6.77477C23.9713 6.6931 24 6.59741 24 6.49958C24.0022 5.80879 23.7963 5.13336 23.409 4.56131C23.0218 3.98927 22.4712 3.54715 21.829 3.29258ZM20 0.999579C20.1978 0.999579 20.3911 1.05823 20.5556 1.16811C20.72 1.27799 20.8482 1.43417 20.9239 1.6169C20.9996 1.79962 21.0194 2.00069 20.9808 2.19467C20.9422 2.38865 20.847 2.56683 20.7071 2.70669C20.5673 2.84654 20.3891 2.94178 20.1951 2.98036C20.0011 3.01895 19.8001 2.99915 19.6173 2.92346C19.4346 2.84777 19.2784 2.7196 19.1685 2.55515C19.0587 2.3907 19 2.19736 19 1.99958C19 1.73436 19.1054 1.48001 19.2929 1.29247C19.4804 1.10494 19.7348 0.999579 20 0.999579ZM17.0215 6.17108C17.0783 5.74001 17.2493 5.33194 17.5167 4.98911C17.7841 4.64627 18.1382 4.38111 18.5425 4.22108L19.0965 3.99958H20.9035L21.4575 4.22108C21.8618 4.38111 22.216 4.64627 22.4834 4.98911C22.7508 5.33194 22.9217 5.74001 22.9785 6.17108C21.059 6.89608 18.941 6.89608 17.0215 6.17108Z" fill="white"/>
<path d="M21.829 19.2926L21.5915 19.1976C21.8172 18.9011 21.9555 18.5474 21.991 18.1765C22.0264 17.8055 21.9575 17.4321 21.792 17.0982C21.6265 16.7643 21.3711 16.4833 21.0545 16.2869C20.7379 16.0904 20.3726 15.9863 20 15.9863C19.6274 15.9863 19.2622 16.0904 18.9456 16.2869C18.6289 16.4833 18.3735 16.7643 18.208 17.0982C18.0426 17.4321 17.9737 17.8055 18.0091 18.1765C18.0445 18.5474 18.1828 18.9011 18.4085 19.1976L18.1715 19.2926C17.5292 19.547 16.9785 19.9891 16.5911 20.5612C16.2038 21.1332 15.9978 21.8087 16 22.4996C16 22.5974 16.0287 22.6931 16.0826 22.7748C16.1365 22.8565 16.2131 22.9205 16.303 22.9591C17.4719 23.4573 18.7294 23.7141 20 23.7141C21.2706 23.7141 22.5281 23.4573 23.697 22.9591C23.7869 22.9205 23.8636 22.8565 23.9174 22.7748C23.9713 22.6931 24 22.5974 24 22.4996C24.0022 21.8088 23.7963 21.1334 23.409 20.5613C23.0218 19.9893 22.4712 19.5472 21.829 19.2926ZM20 16.9996C20.1978 16.9996 20.3911 17.0582 20.5556 17.1681C20.72 17.278 20.8482 17.4342 20.9239 17.6169C20.9996 17.7996 21.0194 18.0007 20.9808 18.1947C20.9422 18.3887 20.847 18.5668 20.7071 18.7067C20.5673 18.8465 20.3891 18.9418 20.1951 18.9804C20.0011 19.0189 19.8001 18.9991 19.6173 18.9235C19.4346 18.8478 19.2784 18.7196 19.1685 18.5551C19.0587 18.3907 19 18.1974 19 17.9996C19 17.7344 19.1054 17.48 19.2929 17.2925C19.4804 17.1049 19.7348 16.9996 20 16.9996ZM17.0215 22.1711C17.0783 21.74 17.2493 21.3319 17.5167 20.9891C17.7841 20.6463 18.1382 20.3811 18.5425 20.2211L19.0965 19.9996H20.9035L21.4575 20.2211C21.8618 20.3811 22.216 20.6463 22.4834 20.9891C22.7508 21.3319 22.9217 21.74 22.9785 22.1711C21.059 22.8961 18.941 22.8961 17.0215 22.1711Z" fill="white"/>
<path d="M17.5 12C17.5 9.519 15.145 7.5 12.25 7.5C9.355 7.5 7 9.519 7 12C7.02242 12.7563 7.24105 13.4937 7.63445 14.14C8.02786 14.7863 8.58251 15.3192 9.244 15.6865L8.731 17.225C8.68314 17.3676 8.6817 17.5216 8.72691 17.665C8.77212 17.8085 8.86163 17.9339 8.9826 18.0232C9.10356 18.1126 9.24973 18.1613 9.40011 18.1623C9.55048 18.1633 9.69732 18.1167 9.8195 18.029L11.9695 16.492C12.0615 16.497 12.1545 16.5 12.2485 16.5C15.145 16.5 17.5 14.481 17.5 12ZM12.25 15.5C12.1195 15.5 11.9905 15.493 11.8625 15.4835C11.7457 15.4737 11.6293 15.5061 11.5345 15.575L9.9605 16.7L10.325 15.6065C10.3633 15.4923 10.3591 15.3681 10.3132 15.2568C10.2672 15.1455 10.1827 15.0545 10.075 15.0005C9.48353 14.7439 8.97569 14.3269 8.60898 13.7966C8.24226 13.2663 8.03131 12.644 8 12C8 10.07 9.9065 8.5 12.25 8.5C14.5935 8.5 16.5 10.07 16.5 12C16.5 13.93 14.5935 15.5 12.25 15.5Z" fill="white"/>
<path d="M1.62602 8.33301C0.791325 10.7061 0.791325 13.2929 1.62602 15.666L2.56902 15.333C1.81042 13.1754 1.81042 10.8236 2.56902 8.66601L1.62602 8.33301Z" fill="white"/>
<path d="M9.14251 21.5859L8.85751 22.5444C10.9085 23.1518 13.0915 23.1518 15.1425 22.5444L14.8575 21.5859C12.9921 22.1354 11.0079 22.1354 9.14251 21.5859Z" fill="white"/>
<path d="M22.374 15.666C23.2087 13.2929 23.2087 10.7061 22.374 8.33301L21.431 8.66601C22.1896 10.8236 22.1896 13.1754 21.431 15.333L22.374 15.666Z" fill="white"/>
<path d="M16.7615 3.20399L17.2385 2.32499C15.6294 1.45536 13.8291 1 12 1C10.1709 1 8.37062 1.45536 6.76151 2.32499L7.23851 3.20399C8.70568 2.42802 10.3403 2.02239 12 2.02239C13.6597 2.02239 15.2943 2.42802 16.7615 3.20399Z" fill="white"/>
</g>
<defs>
<clipPath id="clip0_51_6304">
<rect width="24" height="24" fill="white"/>
</clipPath>
</defs>
</svg>
