<svg width="24" height="24" viewBox="0 0 24 24" fill="none" xmlns="http://www.w3.org/2000/svg">
<path fill-rule="evenodd" clip-rule="evenodd" d="M8.5 4H6.5C6.10218 4 5.72064 4.15804 5.43934 4.43934C5.15804 4.72064 5 5.10218 5 5.5V17.5C5 17.8978 5.15804 18.2794 5.43934 18.5607C5.72064 18.842 6.10218 19 6.5 19H15C15.3978 19 15.7794 18.842 16.0607 18.5607C16.342 18.2794 16.5 17.8978 16.5 17.5V5.5C16.5 5.10218 16.342 4.72064 16.0607 4.43934C15.7794 4.15804 15.3978 4 15 4H14.5V5H15C15.1326 5 15.2598 5.05268 15.3536 5.14645C15.4473 5.24021 15.5 5.36739 15.5 5.5V17.5C15.5 17.6326 15.4473 17.7598 15.3536 17.8536C15.2598 17.9473 15.1326 18 15 18H6.5C6.36739 18 6.24021 17.9473 6.14645 17.8536C6.05268 17.7598 6 17.6326 6 17.5V5.5C6 5.36739 6.05268 5.24021 6.14645 5.14645C6.24021 5.05268 6.36739 5 6.5 5H8.5V4ZM9.5 5H13.5V4H9.5V5Z" fill="#0A1E63"/>
<path fill-rule="evenodd" clip-rule="evenodd" d="M7 9.5C7 9.36739 7.05268 9.24021 7.14645 9.14645C7.24021 9.05268 7.36739 9 7.5 9H14C14.1326 9 14.2598 9.05268 14.3536 9.14645C14.4473 9.24021 14.5 9.36739 14.5 9.5C14.5 9.63261 14.4473 9.75979 14.3536 9.85355C14.2598 9.94732 14.1326 10 14 10H7.5C7.36739 10 7.24021 9.94732 7.14645 9.85355C7.05268 9.75979 7 9.63261 7 9.5ZM7 12C7 11.8674 7.05268 11.7402 7.14645 11.6464C7.24021 11.5527 7.36739 11.5 7.5 11.5H11C11.1326 11.5 11.2598 11.5527 11.3536 11.6464C11.4473 11.7402 11.5 11.8674 11.5 12C11.5 12.1326 11.4473 12.2598 11.3536 12.3536C11.2598 12.4473 11.1326 12.5 11 12.5H7.5C7.36739 12.5 7.24021 12.4473 7.14645 12.3536C7.05268 12.2598 7 12.1326 7 12ZM7 14.5C7 14.3674 7.05268 14.2402 7.14645 14.1464C7.24021 14.0527 7.36739 14 7.5 14H13C13.1326 14 13.2598 14.0527 13.3536 14.1464C13.4473 14.2402 13.5 14.3674 13.5 14.5C13.5 14.6326 13.4473 14.7598 13.3536 14.8536C13.2598 14.9473 13.1326 15 13 15H7.5C7.36739 15 7.24021 14.9473 7.14645 14.8536C7.05268 14.7598 7 14.6326 7 14.5Z" fill="#0A1E63"/>
<path fill-rule="evenodd" clip-rule="evenodd" d="M4 5V17.5C4 18.163 4.26339 18.7989 4.73223 19.2678C5.20107 19.7366 5.83696 20 6.5 20H15V21H6.5C5.57174 21 4.6815 20.6313 4.02513 19.9749C3.36875 19.3185 3 18.4283 3 17.5V5H4ZM18 6.5C18 6.10218 18.158 5.72064 18.4393 5.43934C18.7206 5.15804 19.1022 5 19.5 5C19.8978 5 20.2794 5.15804 20.5607 5.43934C20.842 5.72064 21 6.10218 21 6.5V16.6515L19.5 18.9015L18 16.6515V6.5ZM19.5 6C19.3674 6 19.2402 6.05268 19.1464 6.14645C19.0527 6.24022 19 6.36739 19 6.5V16.3485L19.5 17.0985L20 16.3485V6.5C20 6.36739 19.9473 6.24022 19.8536 6.14645C19.7598 6.05268 19.6326 6 19.5 6Z" fill="#0A1E63"/>
<path fill-rule="evenodd" clip-rule="evenodd" d="M20.5 8.5H18.5V7.5H20.5V8.5ZM13 3C13.1326 3 13.2598 3.05268 13.3536 3.14645C13.4473 3.24021 13.5 3.36739 13.5 3.5V5.5C13.5 5.63261 13.4473 5.75979 13.3536 5.85355C13.2598 5.94732 13.1326 6 13 6C12.8674 6 12.7402 5.94732 12.6464 5.85355C12.5527 5.75979 12.5 5.63261 12.5 5.5V3.5C12.5 3.36739 12.5527 3.24021 12.6464 3.14645C12.7402 3.05268 12.8674 3 13 3ZM8 3C8.13261 3 8.25979 3.05268 8.35355 3.14645C8.44732 3.24021 8.5 3.36739 8.5 3.5V5.5C8.5 5.63261 8.44732 5.75979 8.35355 5.85355C8.25979 5.94732 8.13261 6 8 6C7.86739 6 7.74021 5.94732 7.64645 5.85355C7.55268 5.75979 7.5 5.63261 7.5 5.5V3.5C7.5 3.36739 7.55268 3.24021 7.64645 3.14645C7.74021 3.05268 7.86739 3 8 3Z" fill="#0A1E63"/>
</svg>
