<svg width="24" height="24" viewBox="0 0 24 24" fill="none" xmlns="http://www.w3.org/2000/svg">
<path d="M11.97 21.5C13.07 21.5 13.97 20.6 13.97 19.5H9.97C9.97 20.6 10.87 21.5 11.97 21.5ZM17.97 15.5V10.5C17.97 7.43 16.34 4.86 13.47 4.18V3.5C13.47 2.67 12.8 2 11.97 2C11.14 2 10.47 2.67 10.47 3.5V4.18C7.61 4.86 5.97 7.42 5.97 10.5V15.5L3.97 17.5V18.5H19.97V17.5L17.97 15.5ZM15.97 16.5H7.97V10.5C7.97 8.02 9.48 6 11.97 6C14.46 6 15.97 8.02 15.97 10.5V16.5ZM7.55 3.58L6.12 2.15C3.72 3.98 2.14 6.8 2 10H4C4.07084 8.73181 4.42683 7.49593 5.04147 6.38439C5.65611 5.27284 6.51357 4.31425 7.55 3.58V3.58ZM19.94 10H21.94C21.79 6.8 20.21 3.98 17.82 2.15L16.4 3.58C17.432 4.31787 18.2856 5.27751 18.8982 6.38846C19.5108 7.49942 19.8668 8.73347 19.94 10Z" fill="#0A1E63"/>
</svg>
