<svg width="24" height="24" viewBox="0 0 24 24" fill="none" xmlns="http://www.w3.org/2000/svg">
<path d="M4 16H6.33333V18.3333H4V16ZM4 11H6.33333V13.3333H4V11ZM4 6H6.33333V8.33333H4V6Z" fill="#0A1E63"/>
<path d="M8 6H20V8.33333H8V6ZM8 11H20V13.3333H8V11ZM8 16H20V18.3333H8V16Z" fill="#0A1E63"/>
<path d="M19.6667 8.33333H8.33333C8.24493 8.33333 8.16014 8.29821 8.09763 8.2357C8.03512 8.17319 8 8.08841 8 8V6.33333C8 6.24493 8.03512 6.16014 8.09763 6.09763C8.16014 6.03512 8.24493 6 8.33333 6H19.6667C19.7551 6 19.8399 6.03512 19.9024 6.09763C19.9649 6.16014 20 6.24493 20 6.33333V8C20 8.08841 19.9649 8.17319 19.9024 8.2357C19.8399 8.29821 19.7551 8.33333 19.6667 8.33333ZM19.6667 13.3333H8.33333C8.24493 13.3333 8.16014 13.2982 8.09763 13.2357C8.03512 13.1732 8 13.0884 8 13V11.3333C8 11.2449 8.03512 11.1601 8.09763 11.0976C8.16014 11.0351 8.24493 11 8.33333 11H19.6667C19.7551 11 19.8399 11.0351 19.9024 11.0976C19.9649 11.1601 20 11.2449 20 11.3333V13C20 13.0884 19.9649 13.1732 19.9024 13.2357C19.8399 13.2982 19.7551 13.3333 19.6667 13.3333ZM19.6667 18.3333H8.33333C8.24493 18.3333 8.16014 18.2982 8.09763 18.2357C8.03512 18.1732 8 18.0884 8 18V16.3333C8 16.2449 8.03512 16.1601 8.09763 16.0976C8.16014 16.0351 8.24493 16 8.33333 16H19.6667C19.7551 16 19.8399 16.0351 19.9024 16.0976C19.9649 16.1601 20 16.2449 20 16.3333V18C20 18.0884 19.9649 18.1732 19.9024 18.2357C19.8399 18.2982 19.7551 18.3333 19.6667 18.3333ZM6 8.33333H4.33333C4.24493 8.33333 4.16014 8.29821 4.09763 8.2357C4.03512 8.17319 4 8.08841 4 8V6.33333C4 6.24493 4.03512 6.16014 4.09763 6.09763C4.16014 6.03512 4.24493 6 4.33333 6H6C6.08841 6 6.17319 6.03512 6.2357 6.09763C6.29821 6.16014 6.33333 6.24493 6.33333 6.33333V8C6.33333 8.08841 6.29821 8.17319 6.2357 8.2357C6.17319 8.29821 6.08841 8.33333 6 8.33333ZM6 13.3333H4.33333C4.24493 13.3333 4.16014 13.2982 4.09763 13.2357C4.03512 13.1732 4 13.0884 4 13V11.3333C4 11.2449 4.03512 11.1601 4.09763 11.0976C4.16014 11.0351 4.24493 11 4.33333 11H6C6.08841 11 6.17319 11.0351 6.2357 11.0976C6.29821 11.1601 6.33333 11.2449 6.33333 11.3333V13C6.33333 13.0884 6.29821 13.1732 6.2357 13.2357C6.17319 13.2982 6.08841 13.3333 6 13.3333ZM6 18.3333H4.33333C4.24493 18.3333 4.16014 18.2982 4.09763 18.2357C4.03512 18.1732 4 18.0884 4 18V16.3333C4 16.2449 4.03512 16.1601 4.09763 16.0976C4.16014 16.0351 4.24493 16 4.33333 16H6C6.08841 16 6.17319 16.0351 6.2357 16.0976C6.29821 16.1601 6.33333 16.2449 6.33333 16.3333V18C6.33333 18.0884 6.29821 18.1732 6.2357 18.2357C6.17319 18.2982 6.08841 18.3333 6 18.3333Z" stroke="#0A1E63" stroke-width="0.666667" stroke-miterlimit="10" stroke-linecap="round" stroke-linejoin="round"/>
</svg>
