<svg width="24" height="24" viewBox="0 0 24 24" fill="none" xmlns="http://www.w3.org/2000/svg">
<path d="M7.25 6C7.05109 6 6.86032 6.07902 6.71967 6.21967C6.57902 6.36032 6.5 6.55109 6.5 6.75V14.25C6.5 14.4489 6.57902 14.6397 6.71967 14.7803C6.86032 14.921 7.05109 15 7.25 15C7.44891 15 7.63968 14.921 7.78033 14.7803C7.92098 14.6397 8 14.4489 8 14.25V6.75C8 6.55109 7.92098 6.36032 7.78033 6.21967C7.63968 6.07902 7.44891 6 7.25 6ZM12 6C11.8011 6 11.6103 6.07902 11.4697 6.21967C11.329 6.36032 11.25 6.55109 11.25 6.75V11.25C11.25 11.4489 11.329 11.6397 11.4697 11.7803C11.6103 11.921 11.8011 12 12 12C12.1989 12 12.3897 11.921 12.5303 11.7803C12.671 11.6397 12.75 11.4489 12.75 11.25V6.75C12.75 6.55109 12.671 6.36032 12.5303 6.21967C12.3897 6.07902 12.1989 6 12 6ZM16 6.75C16 6.55109 16.079 6.36032 16.2197 6.21967C16.3603 6.07902 16.5511 6 16.75 6C16.9489 6 17.1397 6.07902 17.2803 6.21967C17.421 6.36032 17.5 6.55109 17.5 6.75V16.25C17.5 16.4489 17.421 16.6397 17.2803 16.7803C17.1397 16.921 16.9489 17 16.75 17C16.5511 17 16.3603 16.921 16.2197 16.7803C16.079 16.6397 16 16.4489 16 16.25V6.75Z" fill="#0A1E63"/>
<path fill-rule="evenodd" clip-rule="evenodd" d="M3.75 2C3.28587 2 2.84075 2.18437 2.51256 2.51256C2.18437 2.84075 2 3.28587 2 3.75V20.25C2 21.216 2.784 22 3.75 22H20.25C20.7141 22 21.1592 21.8156 21.4874 21.4874C21.8156 21.1592 22 20.7141 22 20.25V3.75C22 3.28587 21.8156 2.84075 21.4874 2.51256C21.1592 2.18437 20.7141 2 20.25 2H3.75ZM3.5 3.75C3.5 3.6837 3.52634 3.62011 3.57322 3.57322C3.62011 3.52634 3.6837 3.5 3.75 3.5H20.25C20.3163 3.5 20.3799 3.52634 20.4268 3.57322C20.4737 3.62011 20.5 3.6837 20.5 3.75V20.25C20.5 20.3163 20.4737 20.3799 20.4268 20.4268C20.3799 20.4737 20.3163 20.5 20.25 20.5H3.75C3.6837 20.5 3.62011 20.4737 3.57322 20.4268C3.52634 20.3799 3.5 20.3163 3.5 20.25V3.75Z" fill="#0A1E63"/>
</svg>
