<svg width="24" height="24" viewBox="0 0 24 24" fill="none" xmlns="http://www.w3.org/2000/svg">
<path d="M22.75 19C22.75 18.78 22.72 18.58 22.69 18.37L23.53 17.64C23.71 17.48 23.75 17.22 23.63 17.01L23.04 15.99C22.9835 15.8896 22.8932 15.8124 22.7852 15.7721C22.6772 15.7318 22.5585 15.7311 22.45 15.77L21.39 16.13C21.07 15.86 20.71 15.65 20.31 15.5L20.09 14.41C20.0664 14.2973 20.0049 14.1961 19.9157 14.1233C19.8266 14.0505 19.7151 14.0105 19.6 14.01H18.42C18.18 14.01 17.98 14.18 17.93 14.41L17.71 15.5C17.31 15.65 16.95 15.86 16.63 16.13L15.57 15.77C15.4614 15.7327 15.3432 15.7342 15.2356 15.7744C15.128 15.8145 15.0377 15.8907 14.98 15.99L14.39 17.01C14.27 17.22 14.31 17.48 14.49 17.64L15.33 18.37C15.3 18.58 15.27 18.78 15.27 19C15.27 19.22 15.3 19.42 15.33 19.63L14.49 20.36C14.31 20.52 14.27 20.78 14.39 20.99L14.98 22.01C15.1 22.22 15.35 22.31 15.57 22.23L16.63 21.87C16.95 22.14 17.31 22.35 17.71 22.5L17.93 23.59C17.98 23.82 18.18 23.99 18.42 23.99H19.6C19.84 23.99 20.04 23.82 20.09 23.59L20.31 22.5C20.71 22.35 21.07 22.14 21.39 21.87L22.45 22.23C22.68 22.31 22.92 22.21 23.04 22.01L23.63 20.99C23.75 20.78 23.71 20.52 23.53 20.36L22.69 19.63C22.72 19.42 22.75 19.22 22.75 19ZM19 21C17.9 21 17 20.1 17 19C17 17.9 17.9 17 19 17C20.1 17 21 17.9 21 19C21 20.1 20.1 21 19 21ZM12 7C11.45 7 11 7.45 11 8V12C11 12.27 11.11 12.52 11.29 12.71L13.36 14.78L14.4 12.99L13 11.59V8C13 7.45 12.55 7 12 7ZM4.26 13C3.61 13 3.12 13.61 3.28 14.24C4.28 18.13 7.8 21 12 21H12.07L10.86 18.91C9.51882 18.6866 8.27157 18.0779 7.27017 17.1582C6.26878 16.2385 5.55646 15.0474 5.22 13.73C5.16491 13.5184 5.04033 13.3314 4.86625 13.199C4.69216 13.0666 4.47867 12.9965 4.26 13ZM4 10C3.45 10 3 9.55 3 9V5C3 4.45 3.45 4 4 4C4.55 4 5 4.45 5 5V6.36C6.65 4.32 9.17 3 12 3C14.3869 3 16.6761 3.94821 18.364 5.63604C20.0518 7.32387 21 9.61305 21 12H19C19 8.14 15.86 5 12 5C10.8725 5.00157 9.76202 5.27509 8.76276 5.79735C7.76351 6.31961 6.90497 7.07519 6.26 8H8C8.55 8 9 8.45 9 9C9 9.55 8.55 10 8 10H4Z" fill="#0A1E63"/>
</svg>
